<svg width="1440" height="290" viewBox="0 0 1440 290" fill="none" xmlns="http://www.w3.org/2000/svg">
<rect width="1440" height="290" fill="#C4C4C4"/>
<path d="M245.208 66.875H189.792C185.419 66.875 181.875 70.4194 181.875 74.7917V130.208C181.875 134.581 185.419 138.125 189.792 138.125H245.208C249.581 138.125 253.125 134.581 253.125 130.208V74.7917C253.125 70.4194 249.581 66.875 245.208 66.875Z" stroke="black" stroke-width="2" stroke-linecap="round" stroke-linejoin="round"/>
<path d="M203.646 94.5833C206.925 94.5833 209.583 91.9249 209.583 88.6458C209.583 85.3666 206.925 82.7083 203.646 82.7083C200.367 82.7083 197.708 85.3666 197.708 88.6458C197.708 91.9249 200.367 94.5833 203.646 94.5833Z" stroke="black" stroke-width="2" stroke-linecap="round" stroke-linejoin="round"/>
<path d="M253.125 114.375L233.333 94.5833L189.792 138.125" stroke="black" stroke-width="2" stroke-linecap="round" stroke-linejoin="round"/>
</svg>
